<?xml version="1.0" encoding="utf-8"?>
<!-- Generator: Adobe Illustrator 26.5.0, SVG Export Plug-In . SVG Version: 6.00 Build 0)  -->
<svg version="1.1" id="Isolation_Mode" xmlns="http://www.w3.org/2000/svg" xmlns:xlink="http://www.w3.org/1999/xlink" x="0px"
	 y="0px" viewBox="0 0 48.5 26" style="enable-background:new 0 0 48.5 26;" xml:space="preserve">
<style type="text/css">
	.st0{fill:#F3F4F1;}
	.st1{fill:#FFFFFF;}
</style>
<g>
	<g>
		<path class="st0" d="M142.1,17.8l0.7-1.6c0.7-1.6,1.3-3.4,1.3-5.9c0-2.3-0.5-3.9-1.2-3.9c-0.9,0-1.4,1.9-1.4,5.2v0.3h-1.1v-0.5
			c0-4.8,1-7.9,2.5-7.9c1.4,0,2.4,2.7,2.4,6.8c0,3.7-0.8,6.1-2,8.8l-0.5,1.1c-0.7,1.6-1,2.3-1.1,3h3.6v3.2h-5
			C140.3,22.4,140.9,20.4,142.1,17.8z"/>
		<path class="st0" d="M146.1,15.2c0-7.3,1-11.7,2.7-11.7c1.6,0,2.7,4.3,2.7,11.8c0,7.3-1,11.6-2.7,11.6
			C147.1,26.8,146.1,22.5,146.1,15.2z M148.8,24c1,0,1.6-2.8,1.6-8.7c0-6.1-0.6-9-1.6-9c-1,0-1.6,2.8-1.6,9
			C147.2,21.2,147.8,24,148.8,24z"/>
		<path class="st0" d="M154,17.8l0.7-1.6c0.7-1.6,1.3-3.4,1.3-5.9c0-2.3-0.5-3.9-1.2-3.9c-0.9,0-1.4,1.9-1.4,5.2v0.3h-1.1v-0.5
			c0-4.8,1-7.9,2.5-7.9c1.4,0,2.4,2.7,2.4,6.8c0,3.7-0.8,6.1-2,8.8l-0.5,1.1c-0.7,1.6-1,2.3-1.1,3h3.6v3.2h-5
			C152.2,22.4,152.9,20.4,154,17.8z"/>
		<path class="st0" d="M159.8,17.8l0.7-1.6c0.7-1.6,1.3-3.4,1.3-5.9c0-2.3-0.5-3.9-1.2-3.9c-0.9,0-1.4,1.9-1.4,5.2v0.3H158v-0.5
			c0-4.8,1-7.9,2.5-7.9c1.4,0,2.4,2.7,2.4,6.8c0,3.7-0.8,6.1-2,8.8l-0.5,1.1c-0.7,1.6-1,2.3-1.1,3h3.6v3.2h-5
			C158,22.4,158.6,20.4,159.8,17.8z"/>
	</g>
	<g>
		<path class="st0" d="M110.6,3.5h1.3v7.1h4.2v1.1h-5.5V3.5z"/>
		<path class="st0" d="M116.5,3.5h1.3v8.2h-1.3V3.5z"/>
		<path class="st0" d="M119,3.5h2.1l2.3,6.1c0.1,0.3,0.2,0.6,0.3,0.8c0.1-0.3,0.2-0.5,0.3-0.8l2.2-6.1h2v8.2H127V5.9
			c0-0.4,0-0.7,0-1.1l-2.5,7h-1.5l-2.6-7c0,0.4,0,0.7,0,1.1v5.9H119V3.5z"/>
		<path class="st0" d="M131.8,3.5h1.5l3.4,8.2h-1.5l-0.9-2.4h-3.6l-0.9,2.4h-1.4L131.8,3.5z M134,8.3l-1.1-2.9
			c-0.1-0.3-0.2-0.5-0.3-0.8c-0.1,0.3-0.2,0.5-0.3,0.8l-1.1,2.9H134z"/>
		<path class="st0" d="M110.6,16.8h3.3c1.6,0,2.9,0.6,2.9,2.4c0,1.8-1.3,2.4-2.9,2.4h-2V25h-1.3V16.8z M113.9,20.5
			c1.1,0,1.6-0.5,1.6-1.3s-0.4-1.3-1.6-1.3h-2v2.6H113.9z"/>
		<path class="st0" d="M117.4,16.8h5.5v1.1h-4.2v2.4h4.1v1.1h-4.1v2.6h4.4V25h-5.7V16.8z"/>
	</g>
</g>
<g>
	<g>
		<path class="st0" d="M5.2,7.4L6,6.8c0.8-0.6,1.5-1.2,1.5-2.2c0-0.9-0.5-1.4-1.4-1.4c-1,0-1.6,0.7-1.6,1.9v0.1H3.2V5.1
			c0-1.8,1.2-2.9,2.9-2.9c1.6,0,2.7,1,2.7,2.5c0,1.4-0.9,2.2-2.3,3.3L6,8.3C5.2,8.9,4.9,9.2,4.8,9.4h4.1v1.2H3.1
			C3.1,9.1,3.9,8.4,5.2,7.4z"/>
		<path class="st0" d="M9.3,6.5c0-2.7,1.2-4.3,3.1-4.3c1.9,0,3.1,1.6,3.1,4.3c0,2.7-1.2,4.3-3.1,4.3C10.5,10.8,9.3,9.2,9.3,6.5z
			 M12.5,9.7c1.1,0,1.8-1,1.8-3.2c0-2.3-0.7-3.3-1.8-3.3c-1.2,0-1.8,1-1.8,3.3C10.6,8.7,11.3,9.7,12.5,9.7z"/>
		<path class="st0" d="M17.7,9h1.6v1.6h-1.6V9z"/>
		<path class="st0" d="M21.5,6.5c0-2.7,1.2-4.3,3.1-4.3c1.9,0,3.1,1.6,3.1,4.3c0,2.7-1.2,4.3-3.1,4.3C22.6,10.8,21.5,9.2,21.5,6.5z
			 M24.6,9.7c1.1,0,1.8-1,1.8-3.2c0-2.3-0.7-3.3-1.8-3.3c-1.2,0-1.8,1-1.8,3.3C22.8,8.7,23.5,9.7,24.6,9.7z"/>
		<path class="st0" d="M28.1,8.4c0-1,0.7-1.8,1.7-2.1c-0.9-0.3-1.5-1-1.5-1.9c0-1.3,1.1-2.3,2.8-2.3c1.7,0,2.8,1,2.8,2.3
			c0,0.9-0.6,1.6-1.5,1.9c1.1,0.3,1.8,1.1,1.8,2.1c0,1.4-1.2,2.4-3,2.4C29.2,10.8,28.1,9.8,28.1,8.4z M31.1,9.8c1,0,1.7-0.6,1.7-1.4
			c0-0.8-0.7-1.4-1.7-1.4c-1,0-1.8,0.6-1.8,1.4C29.4,9.2,30.1,9.8,31.1,9.8z M31.1,5.8c0.9,0,1.5-0.5,1.5-1.3c0-0.8-0.6-1.3-1.5-1.3
			c-0.9,0-1.6,0.5-1.6,1.3C29.6,5.2,30.2,5.8,31.1,5.8z"/>
	</g>
	<g>
		<path class="st0" d="M1.9,20.9h1.4c0.1,1.2,1,1.8,2.2,1.8c1.1,0,1.9-0.5,1.9-1.3c0-0.7-0.6-1-1.5-1.2l-1.3-0.3
			c-1.3-0.3-2.3-1-2.3-2.3c0-1.4,1.3-2.4,3.1-2.4c1.9,0,3.1,1,3.2,2.6H7.1c0-0.9-0.7-1.5-1.9-1.5c-1,0-1.7,0.5-1.7,1.2
			c0,0.7,0.5,1,1.4,1.2L6.3,19c1.3,0.3,2.3,1,2.3,2.3c0,1.4-1.2,2.6-3.3,2.6C3.2,23.9,1.9,22.7,1.9,20.9z"/>
		<path class="st0" d="M11.6,15.4h1.5l3.4,8.2H15l-0.9-2.4h-3.6l-0.9,2.4H8.3L11.6,15.4z M13.7,20.2l-1.1-2.9
			c-0.1-0.3-0.2-0.5-0.3-0.8c-0.1,0.3-0.2,0.5-0.3,0.8L11,20.2H13.7z"/>
		<path class="st0" d="M16.8,15.4h3.3c1.6,0,2.7,0.6,2.7,2.1c0,1-0.7,1.6-1.5,1.8c1,0.3,1.7,1,1.7,2c0,1.8-1.5,2.3-3.2,2.3h-3.1
			V15.4z M20,18.8c1,0,1.5-0.4,1.5-1.2c0-0.7-0.4-1.1-1.5-1.1h-1.9v2.3H20z M20,22.6c1.2,0,1.7-0.5,1.7-1.3c0-0.8-0.5-1.3-1.7-1.3
			h-1.9v2.7H20z"/>
		<path class="st0" d="M26.1,15.4h1.5l3.4,8.2h-1.5l-0.9-2.4h-3.6l-0.9,2.4h-1.4L26.1,15.4z M28.3,20.2l-1.1-2.9
			c-0.1-0.3-0.2-0.5-0.3-0.8c-0.1,0.3-0.2,0.5-0.3,0.8l-1.1,2.9H28.3z"/>
		<path class="st0" d="M31.3,15.4H34c2.7,0,4.4,1.3,4.4,4.1c0,2.5-1.5,4.1-4.3,4.1h-2.8V15.4z M34,22.6c1.9,0,3-0.9,3-3
			c0-1.9-1-3-3.1-3h-1.4v6H34z"/>
		<path class="st0" d="M38.7,19.5c0-2.6,1.7-4.3,4-4.3c2.3,0,4,1.7,4,4.3c0,2.7-1.7,4.3-4,4.3S38.7,22.2,38.7,19.5z M42.7,22.8
			c1.6,0,2.6-1.2,2.6-3.2c0-2-1.1-3.2-2.6-3.2c-1.6,0-2.6,1.2-2.6,3.2C40.1,21.6,41.1,22.8,42.7,22.8z"/>
	</g>
</g>
<path class="st1" d="M214,3.3h0.4V2.9V1.7V1.2H214h-12.4h-0.4v0.4v1.2v0.4h0.4H214z M215.4,23.7c0-0.3-0.2-0.5-0.6-0.5h-0.7V25h0.3
	v-0.7h0.3c0.2,0,0.3,0.1,0.3,0.3V25h0.4v-0.4c0-0.2-0.1-0.4-0.3-0.4C215.3,24.1,215.4,23.9,215.4,23.7 M214.7,24h-0.3v-0.5h0.3
	c0.2,0,0.3,0.1,0.3,0.2C215,23.9,214.9,24,214.7,24 M214.4,16.7L214.4,16.7l0-0.4v-5.8c0-2.8-1.9-4.4-5.2-4.4h-7.4h-0.4v0.4v1.2v0.4
	h0.4c0.3,0,3.2,0,5.3,0c1.1,0,1.9,0,2,0c2.4,0,3.2,1.1,3.2,3.9v0.6c-0.2,0-0.4,0-0.5,0c-0.4,0-0.7,0-1.1,0c-1.3,0-3,0.1-5,0.5
	c-3.3,0.7-5.8,3.4-5.8,6.3c0,3.1,2.5,6.3,6.2,6.3c3.4,0,5.8-1.3,7.2-3.9C214.3,19.8,214.4,17.6,214.4,16.7 M212.4,17.4
	c0,1.6-0.6,3.3-1.7,4.5c-0.8,0.9-2.3,2-4.6,2c-2.4,0-4.1-2.3-4.1-4.5c0-2,1.8-3.9,4.1-4.4c1.6-0.3,3.7-0.4,5.1-0.4
	c0.4,0,0.8,0,1.2,0V17.4z M214.7,22.4c-0.9,0-1.6,0.8-1.6,1.7c0,0.9,0.7,1.7,1.6,1.7c0.9,0,1.6-0.8,1.6-1.7
	C216.3,23.2,215.6,22.4,214.7,22.4 M214.7,25.4c-0.7,0-1.3-0.6-1.3-1.3c0-0.7,0.6-1.3,1.2-1.3c0.7,0,1.2,0.6,1.2,1.3
	C215.9,24.8,215.4,25.4,214.7,25.4"/>
</svg>
