<?xml version="1.0" encoding="utf-8"?>
<!-- Generator: Adobe Illustrator 26.5.0, SVG Export Plug-In . SVG Version: 6.00 Build 0)  -->
<svg version="1.1" id="Isolation_Mode" xmlns="http://www.w3.org/2000/svg" xmlns:xlink="http://www.w3.org/1999/xlink" x="0px"
	 y="0px" viewBox="0 0 339.2 95.2" style="enable-background:new 0 0 339.2 95.2;" xml:space="preserve">
<style type="text/css">
	.st0{fill:#F8F8F8;}
</style>
<path class="st0" d="M297.9,12.5c2.1,0,3.8-1.7,3.8-3.8c0-2.1-1.7-3.8-3.8-3.8c-2.1,0-3.8,1.7-3.8,3.8
	C294.1,10.8,295.8,12.5,297.9,12.5"/>
<g>
	<path class="st0" d="M180.4,21.9h-1l-0.4,0.9l-24,51.5c-0.4,1-0.9,2-1.3,3c-0.4-0.9-0.8-1.8-1.3-2.6l-24.2-51.8l-0.4-0.9h-1h-5.5
		h-1.5v1.5v63V88h1.5h4.1h1.5v-1.5V36.8l23.5,50.3l0.4,0.9h1h3.7h1l0.4-0.9l23.4-50.2v49.6V88h1.5h4.1h1.5v-1.5l0-63v-1.5h-1.5
		H180.4z"/>
	<path class="st0" d="M225.2,20.8c-8.4,0-16.1,3.5-21.6,9.8c-5.5,6.3-8.6,14.9-8.6,24.4c0,9.5,3,18.2,8.6,24.4
		c5.6,6.3,13.2,9.8,21.6,9.8c8.3,0,16-3.5,21.5-9.8c5.5-6.3,8.6-14.9,8.6-24.4c0-9.5-3-18.2-8.6-24.4
		C241.2,24.2,233.6,20.8,225.2,20.8 M248.1,55c0,16.1-9.4,27.3-22.9,27.3c-13.5,0-22.9-11.2-22.9-27.3c0-16.1,9.4-27.3,22.9-27.3
		C238.7,27.7,248.1,38.9,248.1,55"/>
	<path class="st0" d="M110.9,40c0-10.9-8.2-18-20.9-18H65.4h-1.5v1.5v62.7v1.5h1.5h3.9h1.5v-1.5V58.5h19c7.8,0,12.6,1.8,12.6,10.7
		v17v1.5h1.5h4h1.5v-1.5V69.7c0-7.2-2.6-12.2-7.7-14.8C107.5,51.8,110.9,46.4,110.9,40 M70.9,28.7h19.1c9,0,13.9,4,13.9,11.3
		c0,8.1-7.3,11.8-14,11.8h-19V28.7z"/>
	<polygon class="st0" points="333.1,21.9 329,21.9 327.4,21.9 327.4,23.4 327.4,86.5 327.4,88 329,88 333.1,88 334.6,88 334.6,86.5 
		334.6,23.4 334.6,21.9 	"/>
	<polygon class="st0" points="310.6,21.9 309.1,21.9 309.1,23.5 309.1,75.8 270.5,22.6 270,21.9 269.2,21.9 264.5,21.9 262.9,21.9 
		262.9,23.5 262.9,86.5 262.9,88 264.5,88 268.6,88 270.1,88 270.1,86.5 270.1,34 308.7,87.4 309.2,88 309.9,88 314.7,88 316.2,88 
		316.2,86.5 316.2,23.5 316.2,21.9 314.7,21.9 	"/>
	<path class="st0" d="M285.2,12.5c2.1,0,3.8-1.7,3.8-3.8c0-2.1-1.7-3.8-3.8-3.8c-2.1,0-3.8,1.7-3.8,3.8
		C281.4,10.8,283.1,12.5,285.2,12.5"/>
	<path class="st0" d="M37,21.9H11.5H9.9v1.5v4.1v1.5h1.5c1.1,0,11.1,0,18.1,0c3.8,0,6.7,0,6.9,0c8.1,0,11.1,3.6,11.1,13.4v2
		c-0.6,0-1.3,0-1.9,0c-1.2,0-2.5,0-3.8,0c-4.6,0-10.2,0.2-17.3,1.6C13.4,48.4,4.6,57.9,4.6,67.7c0,10.5,8.6,21.8,21.3,21.8
		c11.5,0,19.8-4.5,24.7-13.3c3.8-6.9,4.2-14.5,4.2-17.6l0-1.5V37.2C54.7,27.6,48,21.9,37,21.9 M47.6,51.5v9.4
		c0,5.6-2.1,11.2-5.7,15.3C39,79.4,34,83.2,26,83.2c-8.4,0-14.3-8.1-14.3-15.3c0-6.9,6.1-13.4,14.1-15c5.5-1.1,12.7-1.4,17.7-1.4
		C45,51.5,46.4,51.5,47.6,51.5"/>
	<polygon class="st0" points="10.7,5.3 9.2,5.3 9.2,6.8 9.2,11 9.2,12.5 10.7,12.5 53.2,12.5 54.8,12.5 54.8,11 54.8,6.8 54.8,5.3 
		53.2,5.3 	"/>
</g>
</svg>
